<svg viewBox="0 0 1440 320" xmlns="http://www.w3.org/2000/svg" preserveAspectRatio="none">
  <path d="M0,160L60,170.7C120,181,240,203,360,197.3C480,192,600,160,720,154.7C840,149,960,171,1080,186.7C1200,203,1320,213,1380,218.7L1440,224L1440,320L1380,320C1320,320,1200,320,1080,320C960,320,840,320,720,320C600,320,480,320,360,320C240,320,120,320,60,320L0,320Z" fill="#ff0000" opacity="0.7">
    <animate attributeName="d" dur="8s" repeatCount="indefinite" values="M0,160L60,170.7C120,181,240,203,360,197.3C480,192,600,160,720,154.7C840,149,960,171,1080,186.7C1200,203,1320,213,1380,218.7L1440,224L1440,320L1380,320C1320,320,1200,320,1080,320C960,320,840,320,720,320C600,320,480,320,360,320C240,320,120,320,60,320L0,320Z;M0,180L60,190.7C120,201,240,223,360,217.3C480,212,600,180,720,174.7C840,169,960,191,1080,206.7C1200,223,1320,233,1380,238.7L1440,244L1440,320L1380,320C1320,320,1200,320,1080,320C960,320,840,320,720,320C600,320,480,320,360,320C240,320,120,320,60,320L0,320Z;M0,160L60,170.7C120,181,240,203,360,197.3C480,192,600,160,720,154.7C840,149,960,171,1080,186.7C1200,203,1320,213,1380,218.7L1440,224L1440,320L1380,320C1320,320,1200,320,1080,320C960,320,840,320,720,320C600,320,480,320,360,320C240,320,120,320,60,320L0,320Z" />
  </path>
  <path d="M0,192L60,202.7C120,213,240,235,360,229.3C480,224,600,192,720,186.7C840,181,960,203,1080,218.7C1200,235,1320,245,1380,250.7L1440,256L1440,320L1380,320C1320,320,1200,320,1080,320C960,320,840,320,720,320C600,320,480,320,360,320C240,320,120,320,60,320L0,320Z" fill="#0033cc" opacity="0.5">
    <animate attributeName="d" dur="10s" repeatCount="indefinite" values="M0,192L60,202.7C120,213,240,235,360,229.3C480,224,600,192,720,186.7C840,181,960,203,1080,218.7C1200,235,1320,245,1380,250.7L1440,256L1440,320L1380,320C1320,320,1200,320,1080,320C960,320,840,320,720,320C600,320,480,320,360,320C240,320,120,320,60,320L0,320Z;M0,212L60,222.7C120,233,240,255,360,249.3C480,244,600,212,720,206.7C840,201,960,223,1080,238.7C1200,255,1320,265,1380,270.7L1440,276L1440,320L1380,320C1320,320,1200,320,1080,320C960,320,840,320,720,320C600,320,480,320,360,320C240,320,120,320,60,320L0,320Z;M0,192L60,202.7C120,213,240,235,360,229.3C480,224,600,192,720,186.7C840,181,960,203,1080,218.7C1200,235,1320,245,1380,250.7L1440,256L1440,320L1380,320C1320,320,1200,320,1080,320C960,320,840,320,720,320C600,320,480,320,360,320C240,320,120,320,60,320L0,320Z" />
  </path>
  <path d="M0,224L60,234.7C120,245,240,267,360,261.3C480,256,600,224,720,218.7C840,213,960,235,1080,250.7C1200,267,1320,277,1380,282.7L1440,288L1440,320L1380,320C1320,320,1200,320,1080,320C960,320,840,320,720,320C600,320,480,320,360,320C240,320,120,320,60,320L0,320Z" fill="#0099ff" opacity="0.3">
    <animate attributeName="d" dur="12s" repeatCount="indefinite" values="M0,224L60,234.7C120,245,240,267,360,261.3C480,256,600,224,720,218.7C840,213,960,235,1080,250.7C1200,267,1320,277,1380,282.7L1440,288L1440,320L1380,320C1320,320,1200,320,1080,320C960,320,840,320,720,320C600,320,480,320,360,320C240,320,120,320,60,320L0,320Z;M0,244L60,254.7C120,265,240,287,360,281.3C480,276,600,244,720,238.7C840,233,960,255,1080,270.7C1200,287,1320,297,1380,302.7L1440,308L1440,320L1380,320C1320,320,1200,320,1080,320C960,320,840,320,720,320C600,320,480,320,360,320C240,320,120,320,60,320L0,320Z;M0,224L60,234.7C120,245,240,267,360,261.3C480,256,600,224,720,218.7C840,213,960,235,1080,250.7C1200,267,1320,277,1380,282.7L1440,288L1440,320L1380,320C1320,320,1200,320,1080,320C960,320,840,320,720,320C600,320,480,320,360,320C240,320,120,320,60,320L0,320Z" />
  </path>
</svg>
